<svg width="22" height="29" viewBox="0 0 22 29" fill="none" xmlns="http://www.w3.org/2000/svg">
<path fill-rule="evenodd" clip-rule="evenodd" d="M11.0172 0C11.7426 9.92315e-05 12.4611 0.178596 13.1314 0.525577C13.8018 0.87275 14.4117 1.38166 14.9249 2.02313C15.4379 2.66448 15.8448 3.42607 16.1225 4.264C16.2898 4.76896 16.4072 5.29639 16.4749 5.83381H18.2832C19.3872 5.83387 20.3121 6.67036 20.4221 7.76884L21.1595 15.1477C20.8387 15.2471 20.54 15.3295 20.2618 15.3922C20.2434 14.1085 20.0747 12.9602 19.7431 11.9546C19.4625 11.1036 19.0174 10.4363 18.3713 10.0295H18.3703C17.7238 9.61334 16.9997 9.54415 16.2482 9.79196C15.6546 9.98772 15.1554 10.3251 14.7615 10.8006L14.7576 10.8055C14.3627 11.293 14.1397 11.8971 14.0647 12.5881V12.5921C13.9956 13.2839 14.1083 14.0423 14.3765 14.8557C14.6508 15.6875 15.065 16.3902 15.6266 16.9481L15.6276 16.9501C16.085 17.3985 16.6261 17.7262 17.24 17.9379C17.1076 18.9336 16.8988 19.8023 16.6174 20.548C16.3248 21.3069 16.0343 21.647 15.8107 21.7714L15.7187 21.8119C15.4835 21.8893 15.3048 21.8555 15.1199 21.708C14.9137 21.5268 14.6869 21.2225 14.4517 20.7628L14.3488 20.5529C14.0807 19.9581 13.7703 19.1306 13.4184 18.0636C12.9054 16.5077 12.5261 14.9065 12.2802 13.2612H12.2792C12.2621 13.1198 12.2218 12.9631 12.1693 12.8039C12.0575 12.4648 11.8512 12.1565 11.5032 11.9982H11.5042C11.5014 11.9968 11.498 11.9956 11.4953 11.9942C11.4873 11.9907 11.4796 11.9857 11.4715 11.9824L11.4705 11.9843C11.1246 11.8245 10.7404 11.8667 10.3926 11.9814C9.95684 12.1251 9.58735 12.3652 9.35137 12.7346C9.10147 13.123 9.08084 13.6279 9.15638 14.1411L9.15539 14.1441C9.46292 16.1771 9.61 17.9581 9.59882 19.4899C9.58426 21.0277 9.45346 22.1938 9.2227 23.0096V23.0116C9.10759 23.4232 8.98861 23.7149 8.87528 23.9053C8.75995 24.099 8.68414 24.1312 8.67931 24.133C8.66313 24.1383 8.61765 24.1522 8.5051 24.0835C8.3783 24.0058 8.20591 23.8432 7.99635 23.552C7.58397 22.9786 7.15949 22.0668 6.73635 20.7836C6.28534 19.4156 5.87764 17.6976 5.51496 15.6248L5.51298 15.6139L5.511 15.602C5.4671 15.4046 5.42779 15.2455 5.39618 15.1497C5.2672 14.7588 5.03708 14.3705 4.61524 14.2173L4.61623 14.2163C4.61237 14.2148 4.60822 14.2128 4.60435 14.2114H4.60039C4.25849 14.0864 3.89137 14.1254 3.5433 14.2401C3.13999 14.3731 2.78216 14.5888 2.56341 14.928L2.47829 15.0814C2.29392 15.4732 2.30851 15.9816 2.40406 16.5106C2.71872 18.3236 3.1156 19.9598 3.59576 21.416C4.2034 23.2587 4.91568 24.727 5.74657 25.7909H2.14968C0.891285 25.7909 -0.0981634 24.7148 0.00778122 23.4609L1.33311 7.8015C1.42743 6.68905 2.35758 5.83402 3.47402 5.83381H5.55851C5.6262 5.29638 5.74354 4.76897 5.91087 4.264C6.1886 3.42607 6.59544 2.66449 7.10851 2.02313C7.6217 1.38166 8.23151 0.87274 8.90201 0.525577C9.57243 0.178522 10.2915 3.96485e-08 11.0172 0ZM21.988 23.4283C22.1143 24.6933 21.1204 25.7908 19.8491 25.7909H10.9687C11.1352 25.5349 11.2852 25.2525 11.4171 24.9446L11.4151 24.9436C11.7231 24.2359 11.9357 23.3808 12.0604 22.386C12.425 23.0563 12.8203 23.6247 13.2521 24.0825L13.4085 24.2389C13.7743 24.5866 14.1744 24.8395 14.6111 24.9723C15.1155 25.1257 15.6346 25.1083 16.1522 24.9377C17.2605 24.5722 18.131 23.6555 18.8029 22.3227C19.427 21.0843 19.8458 19.6798 20.0708 18.1161C20.5045 18.0452 20.9562 17.9392 21.4248 17.7984L21.988 23.4283ZM16.1552 24.3963L15.9928 24.4547C16.0495 24.436 16.1056 24.4157 16.1611 24.3933L16.1552 24.3963ZM13.6223 23.7331C13.6681 23.7812 13.7136 23.8277 13.7599 23.8717C13.7137 23.8279 13.6679 23.782 13.6223 23.7341V23.7331ZM4.91416 15.309L4.95573 15.4605C4.93902 15.3936 4.92435 15.3429 4.91317 15.309C4.9095 15.2979 4.90506 15.2872 4.90129 15.2764C4.90508 15.2873 4.91047 15.2979 4.91416 15.309ZM16.7926 12.5713L16.8005 12.5792C16.8644 12.6362 16.9816 12.8074 17.1093 13.1949C17.2617 13.657 17.3585 14.2608 17.3924 15.0161C17.1415 14.7661 16.9352 14.4176 16.7807 13.9491C16.6065 13.4206 16.575 13.0558 16.6184 12.8217L16.6194 12.8158C16.6561 12.6013 16.7189 12.5546 16.751 12.5406C16.7597 12.5461 16.7747 12.5547 16.7926 12.5713ZM16.0938 13.0909C16.0931 13.0655 16.0916 13.0404 16.0918 13.0157L16.0928 12.9969C16.0923 13.0276 16.0929 13.059 16.0938 13.0909ZM17.9328 10.3621L18.1011 10.4601C18.042 10.4218 17.9816 10.3872 17.9209 10.3561C17.9249 10.3582 17.9289 10.36 17.9328 10.3621ZM16.8559 10.172C16.71 10.1902 16.5605 10.2246 16.4076 10.275C16.3446 10.2957 16.2828 10.318 16.2225 10.3423C16.162 10.3667 16.103 10.3934 16.0453 10.4215H16.0443C16.1598 10.3652 16.2811 10.3167 16.4076 10.275L16.6382 10.2097C16.7116 10.193 16.7842 10.1809 16.8559 10.172ZM11.0172 2.35668C10.5391 2.35668 10.0653 2.47445 9.62356 2.70311C9.18178 2.93185 8.77989 3.26728 8.44176 3.68993C8.10373 4.11253 7.83586 4.61457 7.6529 5.16669C7.58102 5.38364 7.52284 5.60666 7.47869 5.83381H14.5547C14.5106 5.60677 14.4533 5.38355 14.3815 5.16669C14.1985 4.61458 13.9296 4.11254 13.5916 3.68993C13.2535 3.26728 12.8516 2.93186 12.4098 2.70311C11.9683 2.47453 11.4951 2.35678 11.0172 2.35668Z" fill="#3AAA34"/>
</svg>
